<svg width="173" height="40" viewBox="0 0 173 40" fill="none" xmlns="http://www.w3.org/2000/svg">
<path d="M34.1422 5.85781C30.3647 2.08031 25.3422 0 20 0C14.6578 0 9.63531 2.08031 5.85781 5.85781C2.08031 9.63531 0 14.6578 0 20C0 25.3422 2.08039 30.3646 5.85781 34.1422C9.63523 37.9198 14.6578 40 20 40C25.3422 40 30.3647 37.9197 34.1422 34.1422C37.9197 30.3647 40 25.3422 40 20C40 14.6578 37.9196 9.63539 34.1422 5.85781Z" fill="#33CC95"/>
<path d="M20.5714 8V33.1429" stroke="white" stroke-width="2" stroke-linecap="round" stroke-linejoin="round"/>
<path d="M26.2857 12.5714H17.7143C16.6534 12.5714 15.636 12.9929 14.8859 13.743C14.1357 14.4931 13.7143 15.5106 13.7143 16.5714C13.7143 17.6323 14.1357 18.6497 14.8859 19.3999C15.636 20.15 16.6534 20.5714 17.7143 20.5714H23.4286C24.4894 20.5714 25.5069 20.9929 26.257 21.743C27.0072 22.4932 27.4286 23.5106 27.4286 24.5714C27.4286 25.6323 27.0072 26.6497 26.257 27.3999C25.5069 28.15 24.4894 28.5714 23.4286 28.5714H13.7143" stroke="white" stroke-width="2" stroke-linecap="round" stroke-linejoin="round"/>
<path d="M62.848 19.642C62.848 20.082 62.8187 20.478 62.76 20.83H53.85C53.9233 21.71 54.2313 22.3993 54.774 22.898C55.3167 23.3967 55.984 23.646 56.776 23.646C57.92 23.646 58.734 23.1547 59.218 22.172H62.54C62.188 23.3453 61.5133 24.3133 60.516 25.076C59.5187 25.824 58.294 26.198 56.842 26.198C55.6687 26.198 54.6127 25.9413 53.674 25.428C52.75 24.9 52.024 24.1593 51.496 23.206C50.9827 22.2527 50.726 21.1527 50.726 19.906C50.726 18.6447 50.9827 17.5373 51.496 16.584C52.0093 15.6307 52.728 14.8973 53.652 14.384C54.576 13.8707 55.6393 13.614 56.842 13.614C58.0007 13.614 59.0347 13.8633 59.944 14.362C60.868 14.8607 61.5793 15.572 62.078 16.496C62.5913 17.4053 62.848 18.454 62.848 19.642ZM59.658 18.762C59.6433 17.97 59.3573 17.3393 58.8 16.87C58.2427 16.386 57.5607 16.144 56.754 16.144C55.9913 16.144 55.346 16.3787 54.818 16.848C54.3047 17.3027 53.9893 17.9407 53.872 18.762H59.658ZM64.3041 19.862C64.3041 18.63 64.5461 17.5373 65.0301 16.584C65.5288 15.6307 66.2035 14.8973 67.0541 14.384C67.9048 13.8707 68.8508 13.614 69.8921 13.614C70.6841 13.614 71.4395 13.79 72.1581 14.142C72.8768 14.4793 73.4488 14.934 73.8741 15.506V9.72H76.9981V26H73.8741V24.196C73.4928 24.7973 72.9575 25.2813 72.2681 25.648C71.5788 26.0147 70.7795 26.198 69.8701 26.198C68.8435 26.198 67.9048 25.934 67.0541 25.406C66.2035 24.878 65.5288 24.1373 65.0301 23.184C64.5461 22.216 64.3041 21.1087 64.3041 19.862ZM73.8961 19.906C73.8961 19.158 73.7495 18.52 73.4561 17.992C73.1628 17.4493 72.7668 17.0387 72.2681 16.76C71.7695 16.4667 71.2341 16.32 70.6621 16.32C70.0901 16.32 69.5621 16.4593 69.0781 16.738C68.5941 17.0167 68.1981 17.4273 67.8901 17.97C67.5968 18.498 67.4501 19.1287 67.4501 19.862C67.4501 20.5953 67.5968 21.2407 67.8901 21.798C68.1981 22.3407 68.5941 22.7587 69.0781 23.052C69.5768 23.3453 70.1048 23.492 70.6621 23.492C71.2341 23.492 71.7695 23.3527 72.2681 23.074C72.7668 22.7807 73.1628 22.37 73.4561 21.842C73.7495 21.2993 73.8961 20.654 73.8961 19.906ZM89.9125 26.198C88.9151 26.198 88.0205 26.022 87.2285 25.67C86.4365 25.3033 85.8058 24.812 85.3365 24.196C84.8818 23.58 84.6325 22.898 84.5885 22.15H87.6905C87.7491 22.6193 87.9765 23.008 88.3725 23.316C88.7831 23.624 89.2891 23.778 89.8905 23.778C90.4771 23.778 90.9318 23.6607 91.2545 23.426C91.5918 23.1913 91.7605 22.8907 91.7605 22.524C91.7605 22.128 91.5551 21.8347 91.1445 21.644C90.7485 21.4387 90.1105 21.2187 89.2305 20.984C88.3211 20.764 87.5731 20.5367 86.9865 20.302C86.4145 20.0673 85.9158 19.708 85.4905 19.224C85.0798 18.74 84.8745 18.0873 84.8745 17.266C84.8745 16.5913 85.0651 15.9753 85.4465 15.418C85.8425 14.8607 86.3998 14.4207 87.1185 14.098C87.8518 13.7753 88.7098 13.614 89.6925 13.614C91.1445 13.614 92.3031 13.9807 93.1685 14.714C94.0338 15.4327 94.5105 16.408 94.5985 17.64H91.6505C91.6065 17.156 91.4011 16.7747 91.0345 16.496C90.6825 16.2027 90.2058 16.056 89.6045 16.056C89.0471 16.056 88.6145 16.1587 88.3065 16.364C88.0131 16.5693 87.8665 16.8553 87.8665 17.222C87.8665 17.6327 88.0718 17.948 88.4825 18.168C88.8931 18.3733 89.5311 18.586 90.3965 18.806C91.2765 19.026 92.0025 19.2533 92.5745 19.488C93.1465 19.7227 93.6378 20.0893 94.0485 20.588C94.4738 21.072 94.6938 21.7173 94.7085 22.524C94.7085 23.228 94.5105 23.8587 94.1145 24.416C93.7331 24.9733 93.1758 25.4133 92.4425 25.736C91.7238 26.044 90.8805 26.198 89.9125 26.198ZM96.4447 19.862C96.4447 18.63 96.6867 17.5373 97.1707 16.584C97.6694 15.6307 98.3368 14.8973 99.1728 14.384C100.023 13.8707 100.969 13.614 102.011 13.614C102.92 13.614 103.712 13.7973 104.387 14.164C105.076 14.5307 105.626 14.9927 106.037 15.55V13.812H109.139V26H106.037V24.218C105.641 24.79 105.091 25.2667 104.387 25.648C103.697 26.0147 102.898 26.198 101.989 26.198C100.962 26.198 100.023 25.934 99.1728 25.406C98.3368 24.878 97.6694 24.1373 97.1707 23.184C96.6867 22.216 96.4447 21.1087 96.4447 19.862ZM106.037 19.906C106.037 19.158 105.89 18.52 105.597 17.992C105.303 17.4493 104.907 17.0387 104.409 16.76C103.91 16.4667 103.375 16.32 102.803 16.32C102.231 16.32 101.703 16.4593 101.219 16.738C100.735 17.0167 100.339 17.4273 100.031 17.97C99.7374 18.498 99.5908 19.1287 99.5908 19.862C99.5908 20.5953 99.7374 21.2407 100.031 21.798C100.339 22.3407 100.735 22.7587 101.219 23.052C101.717 23.3453 102.245 23.492 102.803 23.492C103.375 23.492 103.91 23.3527 104.409 23.074C104.907 22.7807 105.303 22.37 105.597 21.842C105.89 21.2993 106.037 20.654 106.037 19.906ZM117.229 23.162L120.309 13.812H123.587L119.077 26H115.337L110.849 13.812H114.149L117.229 23.162ZM126.879 12.36C126.336 12.36 125.881 12.1913 125.515 11.854C125.163 11.502 124.987 11.0693 124.987 10.556C124.987 10.0427 125.163 9.61733 125.515 9.28C125.881 8.928 126.336 8.752 126.879 8.752C127.421 8.752 127.869 8.928 128.221 9.28C128.587 9.61733 128.771 10.0427 128.771 10.556C128.771 11.0693 128.587 11.502 128.221 11.854C127.869 12.1913 127.421 12.36 126.879 12.36ZM128.397 13.812V26H125.317V13.812H128.397ZM138.194 13.636C139.646 13.636 140.819 14.098 141.714 15.022C142.609 15.9313 143.056 17.2073 143.056 18.85V26H139.976V19.268C139.976 18.3 139.734 17.5593 139.25 17.046C138.766 16.518 138.106 16.254 137.27 16.254C136.419 16.254 135.745 16.518 135.246 17.046C134.762 17.5593 134.52 18.3 134.52 19.268V26H131.44V13.812H134.52V15.33C134.931 14.802 135.451 14.3913 136.082 14.098C136.727 13.79 137.431 13.636 138.194 13.636ZM150.759 13.614C151.668 13.614 152.467 13.7973 153.157 14.164C153.846 14.516 154.389 14.978 154.785 15.55V13.812H157.887V26.088C157.887 27.2173 157.659 28.222 157.205 29.102C156.75 29.9967 156.068 30.7007 155.159 31.214C154.249 31.742 153.149 32.006 151.859 32.006C150.128 32.006 148.705 31.6027 147.591 30.796C146.491 29.9893 145.867 28.8893 145.721 27.496H148.779C148.94 28.0533 149.285 28.4933 149.813 28.816C150.355 29.1533 151.008 29.322 151.771 29.322C152.665 29.322 153.391 29.0507 153.949 28.508C154.506 27.98 154.785 27.1733 154.785 26.088V24.196C154.389 24.768 153.839 25.2447 153.135 25.626C152.445 26.0073 151.653 26.198 150.759 26.198C149.732 26.198 148.793 25.934 147.943 25.406C147.092 24.878 146.417 24.1373 145.919 23.184C145.435 22.216 145.193 21.1087 145.193 19.862C145.193 18.63 145.435 17.5373 145.919 16.584C146.417 15.6307 147.085 14.8973 147.921 14.384C148.771 13.8707 149.717 13.614 150.759 13.614ZM154.785 19.906C154.785 19.158 154.638 18.52 154.345 17.992C154.051 17.4493 153.655 17.0387 153.157 16.76C152.658 16.4667 152.123 16.32 151.551 16.32C150.979 16.32 150.451 16.4593 149.967 16.738C149.483 17.0167 149.087 17.4273 148.779 17.97C148.485 18.498 148.339 19.1287 148.339 19.862C148.339 20.5953 148.485 21.2407 148.779 21.798C149.087 22.3407 149.483 22.7587 149.967 23.052C150.465 23.3453 150.993 23.492 151.551 23.492C152.123 23.492 152.658 23.3527 153.157 23.074C153.655 22.7807 154.051 22.37 154.345 21.842C154.638 21.2993 154.785 20.654 154.785 19.906ZM165.559 26.198C164.562 26.198 163.667 26.022 162.875 25.67C162.083 25.3033 161.452 24.812 160.983 24.196C160.528 23.58 160.279 22.898 160.235 22.15H163.337C163.396 22.6193 163.623 23.008 164.019 23.316C164.43 23.624 164.936 23.778 165.537 23.778C166.124 23.778 166.578 23.6607 166.901 23.426C167.238 23.1913 167.407 22.8907 167.407 22.524C167.407 22.128 167.202 21.8347 166.791 21.644C166.395 21.4387 165.757 21.2187 164.877 20.984C163.968 20.764 163.22 20.5367 162.633 20.302C162.061 20.0673 161.562 19.708 161.137 19.224C160.726 18.74 160.521 18.0873 160.521 17.266C160.521 16.5913 160.712 15.9753 161.093 15.418C161.489 14.8607 162.046 14.4207 162.765 14.098C163.498 13.7753 164.356 13.614 165.339 13.614C166.791 13.614 167.95 13.9807 168.815 14.714C169.68 15.4327 170.157 16.408 170.245 17.64H167.297C167.253 17.156 167.048 16.7747 166.681 16.496C166.329 16.2027 165.852 16.056 165.251 16.056C164.694 16.056 164.261 16.1587 163.953 16.364C163.66 16.5693 163.513 16.8553 163.513 17.222C163.513 17.6327 163.718 17.948 164.129 18.168C164.54 18.3733 165.178 18.586 166.043 18.806C166.923 19.026 167.649 19.2533 168.221 19.488C168.793 19.7227 169.284 20.0893 169.695 20.588C170.12 21.072 170.34 21.7173 170.355 22.524C170.355 23.228 170.157 23.8587 169.761 24.416C169.38 24.9733 168.822 25.4133 168.089 25.736C167.37 26.044 166.527 26.198 165.559 26.198Z" fill="white"/>
</svg>
